<svg xmlns="http://www.w3.org/2000/svg" width="2500" height="1750" viewBox="-60 -103.46 500 350"><path fill="#fff" d="M-60-103.46h500v350H-60z"/><g xmlns:rdf="http://www.w3.org/1999/02/22-rdf-syntax-ns#" xmlns:sodipodi="http://sodipodi.sourceforge.net/DTD/sodipodi-0.dtd" xmlns:dc="http://purl.org/dc/elements/1.1/" xmlns:inkscape="http://www.inkscape.org/namespaces/inkscape" xmlns:svg="http://www.w3.org/2000/svg" xmlns:cc="http://creativecommons.org/ns#"><path d="M-20 2.657v137.758h43.508V90.677h30.235l11.752-30.11H23.508V32.615h51.105L85.76 2.661H-20M99.064 2.657l-.076 137.758h43.005V2.657H99.064M310.765 95.415l16.563-57.357 17.161 57.357h-33.724zm39.591-92.758h-44.651l-49.515 137.77h41.566l5.348-18.524h48.452l5.605 18.523H400L350.356 2.657M171.686 2.657v137.758h43.49V90.677h30.2l11.836-30.11h-42.036V32.615h51.123l11.23-29.954H171.686" fill="#131a3c"/></g></svg>