<svg xmlns="http://www.w3.org/2000/svg" width="24" height="20" viewBox="0 0 24 20">
    <g fill="none" fill-rule="evenodd">
        <g fill="#DCE44B" fill-rule="nonzero">
            <g>
                <g>
                    <path d="M7.537 19.538c9.076 0 14.026-7.5 14.026-14.026 0-.187 0-.412-.038-.637.975-.713 1.8-1.575 2.438-2.55-.9.412-1.838.675-2.85.787 1.012-.6 1.8-1.575 2.175-2.737-.976.563-1.988.975-3.15 1.2C19.238.6 17.962 0 16.537 0c-2.738 0-4.95 2.212-4.95 4.95 0 .375.037.75.112 1.125C7.725 5.85 4.088 3.9 1.65.9c-.412.75-.675 1.575-.675 2.475 0 1.725.862 3.225 2.212 4.088-.825-.038-1.574-.263-2.212-.6V6.9c0 2.362 1.688 4.387 3.937 4.838-.412.112-.862.187-1.274.187-.338 0-.638-.038-.938-.113.637 1.95 2.438 3.376 4.612 3.413-1.687 1.313-3.825 2.1-6.112 2.1-.45.038-.825 0-1.2-.037 2.138 1.424 4.763 2.25 7.537 2.25" transform="translate(-732 -5046) translate(-8 4892) translate(740 154)"/>
                </g>
            </g>
        </g>
    </g>
</svg>
