<svg xmlns="http://www.w3.org/2000/svg" width="24" height="24" viewBox="0 0 24 24">
    <g fill="none" fill-rule="evenodd">
        <g fill="#DCE44B" fill-rule="nonzero">
            <g>
                <g transform="translate(-684 -5044) translate(-8 4892) translate(692 152)">
                    <path d="M23.925 7.05c-.075-1.275-.262-2.138-.563-2.925-.3-.788-.712-1.462-1.387-2.138-.675-.675-1.313-1.05-2.1-1.35-.75-.3-1.65-.487-2.925-.562C15.675 0 15.262 0 12 0 8.738 0 8.325 0 7.05.075 5.775.15 4.912.338 4.125.638c-.788.3-1.462.712-2.1 1.387C1.388 2.7.938 3.338.638 4.125c-.3.75-.488 1.65-.563 2.925C0 8.325 0 8.738 0 12c0 3.262 0 3.675.075 4.95.075 1.275.263 2.137.563 2.925.3.788.712 1.462 1.387 2.137S3.375 23.1 4.162 23.4c.75.3 1.65.488 2.926.563C8.325 24 8.738 24 12 24s3.675 0 4.95-.075c1.275-.075 2.137-.262 2.925-.563.788-.3 1.462-.712 2.137-1.387s1.088-1.35 1.388-2.138c.3-.75.488-1.65.563-2.924C24 15.675 24 15.263 24 12c0-3.262 0-3.675-.075-4.95zm-2.175 9.787c-.038 1.163-.262 1.8-.413 2.213-.224.563-.487.975-.9 1.387-.412.413-.825.675-1.387.9-.413.15-1.05.375-2.213.413-1.274.075-1.65.075-4.837.075-3.188 0-3.6 0-4.838-.075-1.162-.038-1.8-.262-2.212-.413-.563-.224-.975-.487-1.388-.9-.412-.412-.674-.825-.9-1.387-.15-.413-.374-1.05-.412-2.213-.075-1.237-.075-1.612-.075-4.837 0-3.225 0-3.6.075-4.838.038-1.162.263-1.8.413-2.212.225-.563.487-.975.9-1.388.412-.412.825-.674 1.387-.9.412-.15 1.05-.374 2.212-.412 1.276-.075 1.65-.075 4.838-.075s3.6 0 4.837.075c1.163.038 1.8.263 2.213.413.563.225.975.487 1.387.9.413.412.675.825.9 1.387.15.412.375 1.05.413 2.212.075 1.276.075 1.65.075 4.838s0 3.6-.075 4.837z"/>
                    <path d="M12 5.85c-3.412 0-6.15 2.775-6.15 6.15 0 3.412 2.775 6.15 6.15 6.15 3.375 0 6.15-2.737 6.15-6.15 0-3.412-2.737-6.15-6.15-6.15zm0 10.162c-2.213 0-4.013-1.8-4.013-4.012 0-2.213 1.8-4.013 4.013-4.013s4.012 1.8 4.012 4.013-1.8 4.012-4.012 4.012z"/>
                    <circle cx="18.413" cy="5.588" r="1.425"/>
                </g>
            </g>
        </g>
    </g>
</svg>
